{"title":"Queen - Zack Knight - Raxstar - Full Song 720p - Team truHD X264","uid":12411461,"size":25978310,"categoryP":"video","categoryS":"music_videos","magnet":"?xt=urn:btih:24f56320bb43491dbed3e7634f71825e7e0197d0&amp;dn=Queen+-+Zack+Knight+-+Raxstar+-+Full+Song+720p+-+Team+truHD+X264&amp;tr=udp%3A%2F%2Ftracker.openbittorrent.com%3A80&amp;tr=udp%3A%2F%2Fopen.demonii.com%3A1337&amp;tr=udp%3A%2F%2Ftracker.coppersurfer.tk%3A6969&amp;tr=udp%3A%2F%2Fexodus.desync.com%3A6969","seeders":1,"leechers":0,"uploader":"Aainul","files":5,"time":1442156155,"description":"Roshan Prince Guzarishaan (Full Video) Gurmeet Singh - Full 1080p HD - Team truHD HEVC \n\n\n\nTeam truHD HEVC Presents \n\nSource: WEB-DL\n\nEncoder: truHD HEVC Encoding Team\n\nEncoded File Info:\n\nGeneral\n\nFormat                                   : MPEG-4\nFormat profile                           : Base Media / Version 2\nCodec ID                                 : mp42\nFile size                                : 24.6 MiB\nDuration                                 : 3mn 52s\nOverall bit rate mode                    : Variable\nOverall bit rate                         : 887 Kbps\nEncoded date                             : UTC 2036-02-06 06:28:16\nTagged date                              : UTC 2036-02-06 06:28:16\n\nVideo\nID                                       : 1\nFormat                                   : AVC\nFormat/Info                              : Advanced Video Codec\nFormat profile                           : &lt;a class=&quot;__cf_email__&quot; href=&quot;/cdn-cgi/l/email-protection&quot; data-cfemail=&quot;2e664749466e621d001f&quot;&gt;[email&amp;#160;protected]&lt;/a&gt;&lt;script data-cfhash='f9e31' type=&quot;text/javascript&quot;&gt;\n/* &lt;![CDATA[ */!function(){try{var t=&quot;currentScript&quot;in document?document.currentScript:function(){for(var t=document.getElementsByTagName(&quot;script&quot;),e=t.length;e--;)if(t[e].getAttribute(&quot;data-cfhash&quot;))return t[e]}();if(t&amp;&amp;t.previousSibling){var e,r,n,i,c=t.previousSibling,a=c.getAttribute(&quot;data-cfemail&quot;);if(a){for(e=&quot;&quot;,r=parseInt(a.substr(0,2),16),n=2;a.length-n;n+=2)i=parseInt(a.substr(n,2),16)^r,e+=String.fromCharCode(i);e=document.createTextNode(e),c.parentNode.replaceChild(e,c)}t.parentNode.removeChild(t);}}catch(u){}}()/* ]]&gt; */&lt;/script&gt;\nFormat settings, CABAC                   : Yes\nFormat settings, ReFrames                : 5 frames\nCodec ID                                 : avc1\nCodec ID/Info                            : Advanced Video Coding\nDuration                                 : 3mn 52s\nBit rate                                 : 721 Kbps\nWidth                                    : 1 280 pixels\nHeight                                   : 540 pixels\nDisplay aspect ratio                     : 2.40:1\nFrame rate mode                          : Constant\nFrame rate                               : 25.000 fps\nColor space                              : YUV\nChroma subsampling                       : 4:2:0\nBit depth                                : 8 bits\nScan type                                : Progressive\nBits/(Pixel*Frame)                       : 0.042\nStream size                              : 20.0 MiB (81%)\nWriting library                          : x264 core 142 r2479 dd79a61\nEncoding settings                        : cabac=1 / ref=5 / deblock=1:0:0 / analyse=0x3:0x113 / me=umh / subme=8 / psy=1 / psy_rd=1.00:0.00 / mixed_ref=1 / me_range=16 / chroma_me=1 / trellis=1 / 8x8dct=1 / cqm=0 / deadzone=21,11 / fast_pskip=1 / chroma_qp_offset=-2 / threads=3 / lookahead_threads=1 / sliced_threads=0 / nr=0 / decimate=1 / interlaced=0 / bluray_compat=0 / constrained_intra=0 / bframes=3 / b_pyramid=2 / b_adapt=2 / b_bias=0 / direct=3 / weightb=1 / open_gop=0 / weightp=2 / keyint=250 / keyint_min=25 / scenecut=40 / intra_refresh=0 / rc_lookahead=50 / rc=crf / mbtree=1 / crf=27.0 / qcomp=0.60 / qpmin=0 / qpmax=69 / qpstep=4 / ip_ratio=1.40 / aq=1:1.00\nEncoded date                             : UTC 2036-02-06 06:28:16\nTagged date                              : UTC 2036-02-06 06:28:16\nColor primaries                          : BT.709\nTransfer characteristics                 : BT.709\nMatrix coefficients                      : BT.709\n\nAudio\nID                                       : 2\nFormat                                   : AAC\nFormat/Info                              : Advanced Audio Codec\nFormat profile                           : LC\nCodec ID                                 : 40\nDuration                                 : 3mn 52s\nBit rate mode                            : Variable\nBit rate                                 : 160 Kbps\nChannel(s)                               : 2 channels\nChannel positions                        : Front: L R\nSampling rate                            : 44.1 KHz\nCompression mode                         : Lossy\nStream size                              : 4.43 MiB (18%)\nTitle                                    : truHD HEVC\nLanguage                                 : English\nEncoded date                             : UTC 2036-02-06 06:28:16\nTagged date                              : UTC 2036-02-06 06:28:16\n\n\nScreenShots:\n &lt;a href=&quot;\nhttp://i.imgur.com/UKrFPPd.jpg&quot; rel=&quot;nofollow&quot; target=&quot;_NEW&quot;&gt;\nhttp://i.imgur.com/UKrFPPd.jpg&lt;/a&gt;\n\n\n\nLike Us On FB And Request Accepted\n\nKickAssTorrents:      &lt;a href=&quot;\nhttps://kat.cr/user/Aainul/&quot; rel=&quot;nofollow&quot; target=&quot;_NEW&quot;&gt;\nhttps://kat.cr/user/Aainul/&lt;/a&gt;\nGloTorrents:      &lt;a href=&quot;\nhttps://glodls.to/user/Aainul&quot; rel=&quot;nofollow&quot; target=&quot;_NEW&quot;&gt;\nhttps://glodls.to/user/Aainul&lt;/a&gt;\nThePirateBay:      &lt;a href=&quot;\nhttps://thepiratebay.vg/user/Aainul/&quot; rel=&quot;nofollow&quot; target=&quot;_NEW&quot;&gt;\nhttps://thepiratebay.vg/user/Aainul/&lt;/a&gt;\n1337x Torrents:      &lt;a href=&quot;\nhttp://1337.to/user/Aainul/&quot; rel=&quot;nofollow&quot; target=&quot;_NEW&quot;&gt;\nhttp://1337.to/user/Aainul/&lt;/a&gt;\n\n\nNote: All Videos Uploaded By Me Are For Review Purpose. If You Like IT, Google IT And Buy IT - Thanks\n\n\nKing Regards\ntruHD HEVC Team\n\nShare Among Friends And Relatives","torrent":{"xt":"urn:btih:24f56320bb43491dbed3e7634f71825e7e0197d0","amp;dn":"Queen+-+Zack+Knight+-+Raxstar+-+Full+Song+720p+-+Team+truHD+X264","amp;tr":["udp%3A%2F%2Ftracker.openbittorrent.com%3A80","udp%3A%2F%2Fopen.demonii.com%3A1337","udp%3A%2F%2Ftracker.coppersurfer.tk%3A6969","udp%3A%2F%2Fexodus.desync.com%3A6969"],"infoHash":"24f56320bb43491dbed3e7634f71825e7e0197d0","infoHashBuffer":{"type":"Buffer","data":[36,245,99,32,187,67,73,29,190,211,231,99,79,113,130,94,126,1,151,208]},"announce":[],"urlList":[]}}